<?xml version="1.0" standalone="no"?>
<!DOCTYPE svg PUBLIC "-//W3C//DTD SVG 20010904//EN"
 "http://www.w3.org/TR/2001/REC-SVG-20010904/DTD/svg10.dtd">
<svg version="1.0" xmlns="http://www.w3.org/2000/svg"
 width="425.000000pt" height="239.000000pt" viewBox="0 0 425.000000 239.000000"
 preserveAspectRatio="xMidYMid meet">
<metadata>
Created by potrace 1.16, written by Peter Selinger 2001-2019
</metadata>
<g transform="translate(0.000000,239.000000) scale(0.100000,-0.100000)"
fill="#000000" stroke="none">
<path d="M372 1804 c-25 -18 -29 -46 -7 -64 17 -14 21 -60 5 -60 -5 0 -18 -8
-28 -18 -10 -10 -39 -29 -65 -41 -54 -26 -91 -67 -121 -131 -18 -39 -21 -70
-24 -217 l-4 -173 267 0 267 0 -4 178 c-3 169 -5 179 -30 228 -29 54 -73 98
-123 120 -16 8 -43 25 -59 38 -30 25 -29 22 -10 99 4 15 0 30 -11 40 -20 21
-25 21 -53 1z m112 -570 c23 -9 20 -47 -5 -70 -16 -14 -36 -19 -84 -19 -48 0
-68 5 -84 19 -23 21 -28 61 -8 69 18 8 162 8 181 1z"/>
<path d="M2890 1507 c-48 -15 -104 -75 -124 -132 -32 -94 -16 -235 34 -305 28
-39 111 -80 163 -80 76 0 150 49 189 125 26 50 35 166 19 232 -33 131 -155
200 -281 160z m148 -67 c100 -61 99 -309 -2 -371 -71 -44 -162 -12 -199 69
-30 66 -30 180 1 240 41 78 129 105 200 62z"/>
<path d="M3865 1502 c-91 -43 -142 -148 -132 -271 3 -37 13 -83 21 -103 73
-173 294 -185 377 -21 70 137 32 321 -80 386 -47 28 -137 32 -186 9z m181 -85
c54 -58 69 -154 39 -253 -21 -71 -61 -106 -128 -112 -47 -4 -57 -1 -86 24 -49
41 -71 96 -71 180 0 55 5 81 25 120 33 66 65 86 134 81 47 -3 59 -9 87 -40z"/>
<path d="M2330 1256 l0 -256 30 0 30 0 0 94 c0 121 2 126 54 126 l42 0 63
-110 c60 -106 64 -110 97 -110 19 0 34 2 34 4 0 2 -27 50 -60 106 -33 56 -60
105 -60 108 0 4 15 14 32 23 45 22 70 60 75 116 3 36 -1 56 -16 80 -37 58 -62
68 -198 72 l-123 3 0 -256z m212 194 c44 -13 58 -34 58 -88 0 -63 -33 -86
-131 -91 l-79 -3 0 89 c0 49 3 93 7 96 10 11 104 8 145 -3z"/>
<path d="M3300 1255 l0 -257 123 4 c92 3 130 8 155 21 46 25 72 72 72 130 0
40 -5 54 -29 78 -16 16 -37 29 -45 29 -22 0 -20 4 14 38 25 25 30 39 30 76 0
104 -38 129 -202 134 l-118 4 0 -257z m209 194 c36 -13 51 -35 51 -76 -1 -57
-44 -83 -141 -83 l-59 0 0 85 0 85 59 0 c32 0 72 -5 90 -11z m26 -223 c52 -22
68 -67 44 -120 -16 -34 -76 -56 -154 -56 l-65 0 0 95 0 95 70 0 c39 0 86 -6
105 -14z"/>
<path d="M88 1059 c-13 -7 -18 -23 -18 -59 l0 -50 325 0 325 0 0 48 c0 26 -5
53 -12 60 -15 15 -594 17 -620 1z"/>
</g>
</svg>
