<?xml version="1.0" standalone="no"?>
<!DOCTYPE svg PUBLIC "-//W3C//DTD SVG 20010904//EN"
 "http://www.w3.org/TR/2001/REC-SVG-20010904/DTD/svg10.dtd">
<svg version="1.0" xmlns="http://www.w3.org/2000/svg"
 width="100.000000pt" height="100.000000pt" viewBox="0 0 500.000000 500.000000"
 preserveAspectRatio="xMidYMid meet">

<g transform="translate(0.000000,500.000000) scale(0.100000,-0.100000)"
fill="#000000" stroke="none">
<path d="M0 2500 l0 -2500 2500 0 2500 0 0 2500 0 2500 -2500 0 -2500 0 0
-2500z m1575 815 c14 -13 26 -32 26 -42 1 -10 2 -26 3 -35 1 -10 34 -37 81
-65 l80 -48 0 -144 0 -144 -70 -42 c-38 -22 -95 -55 -125 -73 l-56 -31 -109
64 c-59 36 -114 65 -122 65 -7 0 -58 -26 -113 -57 l-100 -58 0 -131 0 -132
105 -61 106 -62 74 43 c73 41 75 43 75 80 0 98 128 123 166 33 32 -78 -55
-157 -121 -111 -18 12 -29 8 -107 -36 l-87 -49 -125 72 -125 73 -3 140 -3 141
-112 65 -113 65 0 147 0 147 125 71 124 71 126 -72 125 -73 0 -135 0 -136 106
-60 c58 -33 111 -59 117 -57 5 2 54 29 108 60 l99 57 0 127 0 126 -72 40 c-70
39 -72 40 -104 25 -61 -29 -124 10 -124 77 0 79 91 120 145 65z m323 -634 c2
-38 -1 -58 -13 -71 -14 -15 -14 -18 0 -30 10 -8 15 -30 15 -66 0 -47 -2 -54
-20 -54 -17 0 -20 7 -20 48 0 26 -5 53 -12 60 -7 7 -34 12 -60 12 l-48 0 0
-60 c0 -53 -2 -60 -20 -60 -19 0 -20 7 -20 140 l0 141 98 -3 97 -3 3 -54z
m242 39 c0 -18 -7 -20 -80 -20 l-80 0 0 -40 0 -40 80 0 80 0 0 -80 0 -80 -100
0 c-93 0 -100 1 -100 20 0 18 7 20 80 20 l80 0 0 40 0 40 -80 0 -80 0 0 80 0
80 100 0 c93 0 100 -1 100 -20z m80 -40 l0 -60 60 0 60 0 0 60 c0 53 2 60 20
60 19 0 20 -7 20 -140 0 -133 -1 -140 -20 -140 -18 0 -20 7 -20 60 l0 60 -60
0 -60 0 0 -60 c0 -53 -2 -60 -20 -60 -19 0 -20 7 -20 140 0 133 1 140 20 140
18 0 20 -7 20 -60z m400 40 c0 -17 -7 -20 -40 -20 l-40 0 0 -120 c0 -113 -1
-120 -20 -120 -19 0 -20 7 -20 120 l0 120 -40 0 c-33 0 -40 3 -40 20 0 19 7
20 100 20 93 0 100 -1 100 -20z m240 0 c0 -18 -7 -20 -80 -20 l-80 0 0 -40 0
-40 60 0 c53 0 60 -2 60 -20 0 -18 -7 -20 -60 -20 l-60 0 0 -40 0 -40 80 0
c73 0 80 -2 80 -20 0 -19 -7 -20 -100 -20 l-100 0 0 140 0 140 100 0 c93 0
100 -1 100 -20z m240 0 c0 -18 -7 -20 -80 -20 l-80 0 0 -100 0 -100 80 0 c73
0 80 -2 80 -20 0 -19 -7 -20 -100 -20 l-100 0 0 140 0 140 100 0 c93 0 100 -1
100 -20z m80 -40 l0 -60 60 0 60 0 0 60 c0 53 2 60 20 60 19 0 20 -7 20 -140
0 -133 -1 -140 -20 -140 -18 0 -20 7 -20 60 l0 60 -60 0 -60 0 0 -60 c0 -53
-2 -60 -20 -60 -19 0 -20 7 -20 140 0 133 1 140 20 140 18 0 20 -7 20 -60z
m-540 -295 l34 -35 246 0 246 0 34 35 c19 19 39 35 45 35 6 0 31 -20 55 -45
l44 -45 -49 -50 -49 -49 -43 39 -43 40 -238 0 -238 0 -34 -35 c-19 -19 -41
-35 -49 -35 -17 0 -91 68 -91 84 0 11 80 96 90 96 3 0 21 -16 40 -35z"/>
<path d="M1476 3284 c-32 -32 -8 -84 39 -84 44 0 66 40 45 81 -13 23 -62 26
-84 3z"/>
<path d="M938 3167 l-108 -62 3 -124 2 -125 100 -58 c55 -32 107 -58 115 -58
8 1 38 14 65 30 28 16 71 41 97 56 l47 26 3 77 c2 42 2 99 0 128 l-3 52 -105
60 c-59 34 -107 61 -107 60 -1 0 -50 -28 -109 -62z"/>
<path d="M1493 2490 c-50 -20 -32 -100 22 -100 50 0 73 66 33 94 -25 18 -25
18 -55 6z"/>
<path d="M1740 2660 l0 -40 48 0 c55 0 72 12 72 52 0 28 -1 28 -60 28 l-60 0
0 -40z"/>
<path d="M2575 2350 c-18 -20 -18 -21 3 -43 l22 -21 20 20 20 20 -23 22 -24
22 -18 -20z"/>
<path d="M3222 2347 c-22 -23 -22 -24 -4 -40 24 -22 35 -21 55 1 16 17 15 20
-6 40 l-23 22 -22 -23z"/>
</g>
</svg>
