<?xml version="1.0" standalone="no"?>
<!DOCTYPE svg PUBLIC "-//W3C//DTD SVG 20010904//EN"
 "http://www.w3.org/TR/2001/REC-SVG-20010904/DTD/svg10.dtd">
<svg version="1.0" xmlns="http://www.w3.org/2000/svg"
 width="200.000000pt" height="200.000000pt" viewBox= "0 -30  500.000000 500.000000"
 preserveAspectRatio="xMidYMid meet">

<g transform="translate(0.000000,500.000000) scale(0.100000,-0.100000)"
fill="#000000" stroke="none">
<path d="M1464 3331 c-35 -21 -54 -65 -54 -122 0 -31 6 -42 37 -67 l38 -30
-26 -12 c-21 -10 -32 -9 -58 4 -31 16 -31 16 -41 -9 -13 -33 -18 -32 -36 10
-11 27 -29 42 -82 70 -37 19 -91 48 -121 65 -29 17 -55 29 -57 27 -2 -1 51
-34 116 -72 l120 -69 0 -135 0 -136 33 -19 c17 -10 66 -38 108 -61 l77 -42
106 61 106 61 0 125 0 125 -70 42 c-70 42 -71 42 -104 26 -63 -30 -126 9 -126
79 0 44 25 74 67 84 45 9 50 12 23 13 -14 1 -39 -8 -56 -18z m146 -211 c0 -5
-4 -10 -9 -10 -6 0 -13 5 -16 10 -3 6 1 10 9 10 9 0 16 -4 16 -10z"/>
<path d="M1477 3282 c-22 -24 -21 -45 1 -65 33 -30 92 -11 92 29 0 51 -60 73
-93 36z"/>
<path d="M932 3216 c-52 -30 -99 -60 -105 -66 -7 -7 8 -1 33 13 131 74 184
107 175 107 -5 0 -52 -24 -103 -54z"/>
<path d="M1600 3230 c0 -5 10 -15 23 -21 22 -12 22 -12 3 10 -21 23 -26 26
-26 11z"/>
<path d="M937 3167 l-107 -62 2 -124 3 -125 100 -58 c55 -32 106 -58 113 -58
14 0 80 34 165 86 l47 29 0 127 0 126 -106 61 c-58 34 -107 61 -107 61 -1 -1
-50 -29 -110 -63z m205 -8 c38 -23 74 -51 80 -62 16 -31 23 -181 9 -214 -11
-25 -96 -91 -158 -122 -26 -13 -47 -5 -155 65 l-68 44 0 112 0 113 68 39 c37
22 76 45 87 52 34 22 66 16 137 -27z"/>
<path d="M1705 2802 c-33 -21 -90 -54 -126 -74 l-66 -37 -104 64 c-57 35 -112
65 -122 65 -10 0 -63 -26 -118 -57 l-99 -58 0 -131 0 -131 106 -62 106 -62 74
42 c72 41 74 44 74 81 0 99 136 123 167 31 15 -44 -2 -87 -41 -108 -30 -16
-39 -17 -73 -6 -37 12 -41 11 -118 -33 -94 -54 -88 -61 10 -11 59 31 73 35
115 29 57 -8 114 9 135 39 9 12 15 43 15 73 0 38 4 53 16 58 26 10 27 8 20
-37 -7 -44 -7 -44 23 -42 47 3 61 21 61 77 l0 50 33 -7 c44 -10 47 -13 47 -41
0 -14 5 -34 10 -45 10 -18 23 -19 190 -19 173 0 180 1 191 21 6 12 8 34 5 50
-6 34 18 52 62 47 25 -3 27 -7 32 -58 5 -51 7 -55 30 -55 l25 0 3 128 c2 109
5 128 17 123 10 -3 15 1 15 14 0 17 9 20 93 23 55 2 38 3 -43 3 l-135 -1 -3
-53 -3 -53 -47 3 -47 3 3 36 c2 21 -1 40 -7 44 -7 4 -11 -13 -11 -49 l0 -56
60 0 60 0 0 60 c0 53 2 60 20 60 19 0 20 -7 20 -140 0 -133 -1 -140 -20 -140
-18 0 -20 7 -20 60 l0 60 -60 0 -60 0 0 -60 c0 -53 -2 -60 -20 -60 -19 0 -20
7 -20 139 0 137 0 140 23 144 12 2 -41 4 -118 4 -105 -1 -115 -2 -42 -4 89 -3
97 -5 97 -23 0 -18 -7 -20 -80 -20 l-80 0 0 -40 0 -40 80 0 80 0 0 -80 0 -80
-100 0 c-93 0 -100 1 -100 20 0 18 7 20 80 20 l80 0 0 40 0 40 -80 0 -80 0 0
78 c0 73 -1 77 -22 77 -21 0 -23 -4 -19 -49 2 -27 -3 -59 -10 -72 -10 -19 -10
-27 -1 -36 7 -7 12 -36 12 -65 0 -46 -3 -53 -20 -53 -17 0 -20 7 -20 48 0 26
-5 53 -12 60 -7 7 -34 12 -60 12 l-48 0 0 -60 c0 -53 -2 -60 -20 -60 -19 0
-20 7 -20 140 l0 140 88 2 87 2 -80 3 c-44 2 -84 9 -90 14 -7 7 3 22 30 45 51
43 45 42 -30 -4z m-391 -33 c14 -11 26 -26 26 -33 0 -7 -26 -21 -57 -31 -102
-31 -132 -80 -99 -158 19 -45 48 -68 95 -74 22 -3 46 -12 52 -19 6 -8 22 -14
35 -14 32 0 30 -11 -9 -37 -17 -13 -42 -30 -53 -38 -32 -23 -65 -10 -136 53
-69 61 -77 72 -54 72 17 0 22 17 30 96 5 56 -3 78 -26 69 -26 -10 -30 12 -5
28 12 9 36 28 52 43 26 23 99 63 116 64 4 0 18 -9 33 -21z"/>
<path d="M860 2796 c0 -3 9 -10 20 -16 11 -6 20 -8 20 -6 0 3 -9 10 -20 16
-11 6 -20 8 -20 6z"/>
<path d="M925 2755 c11 -9 34 -23 50 -31 28 -14 29 -14 10 1 -11 9 -33 23 -50
31 -28 14 -29 14 -10 -1z"/>
<path d="M2638 2743 c-10 -2 -18 -13 -18 -24 0 -16 -7 -19 -40 -19 l-40 0 0
-120 c0 -113 -1 -120 -20 -120 -18 0 -20 8 -23 98 l-3 97 0 -100 1 -100 43 1
c49 1 53 -11 19 -53 -48 -60 -49 -66 -4 -23 l47 44 38 -37 38 -37 245 0 245 0
34 35 c19 19 38 35 44 35 6 0 30 -19 53 -42 24 -23 43 -37 43 -32 0 6 -9 19
-20 29 -26 23 -25 29 5 59 24 25 25 28 23 163 l-2 138 -3 -137 c-3 -130 -5
-138 -23 -138 -18 0 -20 7 -20 60 l0 60 -60 0 -60 0 0 -60 c0 -53 -2 -60 -20
-60 -19 0 -20 7 -20 139 0 125 2 140 18 144 9 3 -100 5 -243 4 -143 0 -268 -2
-277 -4z m222 -23 c0 -18 -7 -20 -80 -20 l-80 0 0 -40 0 -40 60 0 c53 0 60 -2
60 -20 0 -18 -7 -20 -60 -20 l-60 0 0 -40 0 -40 80 0 c73 0 80 -2 80 -20 0
-19 -7 -20 -100 -20 l-100 0 0 140 0 140 100 0 c93 0 100 -1 100 -20z m240 0
c0 -18 -7 -20 -80 -20 l-80 0 0 -100 0 -100 80 0 c73 0 80 -2 80 -20 0 -19 -7
-20 -100 -20 l-100 0 0 140 0 140 100 0 c93 0 100 -1 100 -20z m-520 -44 c0
-11 -19 -15 -25 -6 -3 5 1 10 9 10 9 0 16 -2 16 -4z m-3 -118 c-3 -7 -5 -2 -5
12 0 14 2 19 5 13 2 -7 2 -19 0 -25z"/>
<path d="M3286 2734 c-3 -9 -6 -31 -6 -50 0 -63 -65 -54 -86 12 l-12 39 -1
-57 -1 -58 60 0 60 0 0 59 c0 48 3 60 18 64 13 4 12 5 -4 6 -12 0 -25 -6 -28
-15z"/>
<path d="M1018 2623 c5 -163 8 -179 10 -45 1 72 -1 132 -5 132 -5 0 -7 -39 -5
-87z"/>
<path d="M1740 2660 l0 -40 48 0 c55 0 72 12 72 52 0 28 -1 28 -60 28 l-60 0
0 -40z"/>
<path d="M2430 2696 c0 -2 16 -6 35 -8 19 -2 35 0 35 4 0 4 -16 8 -35 8 -19 0
-35 -2 -35 -4z"/>
<path d="M1493 2490 c-50 -20 -32 -100 22 -100 50 0 73 66 33 94 -25 18 -25
18 -55 6z"/>
<path d="M1055 2403 c6 -6 37 -26 70 -44 33 -18 56 -28 50 -22 -5 6 -37 26
-70 44 -33 18 -55 28 -50 22z"/>
<path d="M2575 2350 c-18 -20 -18 -21 3 -43 l22 -21 22 22 22 22 -22 20 c-26
25 -25 25 -47 0z"/>
<path d="M3222 2347 c-22 -23 -22 -24 -4 -40 24 -22 35 -21 55 1 16 17 15 20
-6 40 l-23 22 -22 -23z"/>
<path d="M1190 2326 c0 -3 9 -10 20 -16 11 -6 20 -8 20 -6 0 3 -9 10 -20 16
-11 6 -20 8 -20 6z"/>
<path d="M3289 2274 c-24 -26 -35 -42 -24 -36 25 13 80 70 74 77 -3 2 -25 -16
-50 -41z"/>
<path d="M2645 2268 l-40 -43 38 35 38 35 242 5 242 6 -240 2 -241 2 -39 -42z"/>
<path d="M1247 2289 c7 -7 15 -10 18 -7 3 3 -2 9 -12 12 -14 6 -15 5 -6 -5z"/>
<path d="M2530 2287 c0 -2 15 -16 33 -33 l32 -29 -29 33 c-28 30 -36 37 -36
29z"/>
<path d="M3190 2273 c0 -12 38 -48 45 -41 3 2 -6 15 -20 28 -14 13 -25 19 -25
13z"/>
</g>
</svg>
